<svg width="20" height="19" fill="none" xmlns="http://www.w3.org/2000/svg"><path d="M10 0C4.475 0 0 4.36 0 9.74c0 4.306 2.865 7.956 6.838 9.243.5.092.683-.21.683-.468 0-.232-.008-.845-.012-1.657-2.782.588-3.369-1.307-3.369-1.307-.455-1.124-1.112-1.425-1.112-1.425-.906-.603.07-.591.07-.591 1.004.068 1.531 1.004 1.531 1.004.892 1.49 2.341 1.059 2.913.81.09-.63.347-1.059.633-1.303-2.22-.243-4.555-1.081-4.555-4.813 0-1.063.388-1.932 1.03-2.614-.113-.246-.45-1.237.087-2.578 0 0 .837-.261 2.75.999.8-.217 1.65-.324 2.5-.33.85.006 1.7.113 2.5.33 1.9-1.26 2.737-1 2.737-1 .538 1.342.2 2.333.1 2.58a3.719 3.719 0 011.025 2.613c0 3.742-2.337 4.566-4.562 4.805.35.293.675.89.675 1.803 0 1.303-.013 2.35-.013 2.667 0 .255.175.56.688.463 4-1.28 6.863-4.932 6.863-9.23C20 4.36 15.523 0 10 0z" fill="#fff"/></svg>