<svg width="60" height="60" fill="none" xmlns="http://www.w3.org/2000/svg"><path d="M60 30C60 13.44 46.56 0 30 0 13.44 0 0 13.44 0 30c0 16.56 13.44 30 30 30 16.56 0 30-13.44 30-30zM30 3.03c14.91 0 26.97 12.06 26.97 26.97 0 14.91-12.06 26.97-26.97 26.97C15.09 56.97 3.03 44.91 3.03 30 3.03 15.09 15.09 3.03 30 3.03zm-5.97 41.43l-9.15-24.63c1.47-.09 3.15-.24 3.15-.24 1.29-.15 1.14-3.03-.18-2.97 0 0-3.87.3-6.39.3-.45 0-.99 0-1.56-.03 4.32-6.51 11.7-10.8 20.1-10.8 6.27 0 11.97 2.37 16.23 6.27-1.8-.24-4.35 1.05-4.35 4.26 0 1.98 1.14 3.66 2.37 5.64.93 1.62 1.5 3.66 1.5 6.63 0 4.02-3.81 13.44-3.81 13.44l-8.13-22.5c1.44-.09 2.25-.48 2.25-.48 1.29-.15 1.14-3.3-.15-3.24 0 0-3.9.33-6.42.33-2.34 0-6.33-.33-6.33-.33-1.29-.06-1.44 3.18-.15 3.24l2.52.24 3.36 9.12-4.86 15.75zm18.06 6.45L49.92 30s2.01-5.07 1.17-11.43c1.89 3.42 2.82 7.26 2.82 11.43 0 8.88-4.68 16.74-11.82 20.91zM8.04 20.31L19.5 51.75C11.49 47.85 6.09 39.51 6.09 30c0-3.48.6-6.69 1.95-9.69zM30.39 33.9l6.87 18.75c-2.25.81-4.71 1.26-7.26 1.26-2.16 0-4.23-.33-6.18-.9l6.57-19.11z" fill="#3498D8"/></svg>