<svg width="105" height="56" fill="none" xmlns="http://www.w3.org/2000/svg"><g clip-path="url(#clip0)"><path d="M52.5 55.207c28.995 0 52.5-12.358 52.5-27.604C105 12.359 81.495 0 52.5 0S0 12.358 0 27.604c0 15.245 23.505 27.603 52.5 27.603z" fill="url(#paint0_radial)"/><path d="M52.5 53.156c27.862 0 50.449-11.44 50.449-25.552C102.949 13.49 80.362 2.05 52.5 2.05S2.05 13.49 2.05 27.604c0 14.112 22.588 25.552 50.45 25.552z" fill="#6181B6"/><path d="M62.713 35.889l2.502-12.88c.574-2.911.082-5.085-1.395-6.439-1.435-1.312-3.896-1.968-7.505-1.968h-4.348l1.23-6.399a.857.857 0 00-.164-.697.738.738 0 00-.615-.287H46.43a.838.838 0 00-.82.656l-2.667 13.658c-.246-1.558-.82-2.87-1.804-3.937-1.764-2.01-4.512-3.035-8.245-3.035H21.37a.838.838 0 00-.82.656l-5.373 27.726a.857.857 0 00.164.698.738.738 0 00.615.287h6.03c.41 0 .738-.287.82-.656l1.312-6.686h4.47c2.339 0 4.348-.246 5.866-.738a11.631 11.631 0 004.307-2.584 13.245 13.245 0 002.543-3.159l-1.067 5.538a.857.857 0 00.164.697.74.74 0 00.616.287h5.988c.41 0 .738-.287.82-.656l2.953-15.176h4.102c1.764 0 2.256.328 2.42.492.123.123.369.615.082 2.133l-2.379 12.264a.857.857 0 00.164.697c.164.205.37.287.615.287h6.153c.369-.123.697-.41.779-.78zM34.986 25.225c-.369 1.927-1.066 3.322-2.091 4.101-1.026.78-2.708 1.19-4.922 1.19h-2.666l1.927-9.926h3.446c2.543 0 3.568.533 3.978.984.533.656.657 1.928.328 3.65zm53.321-7.629c-1.764-2.01-4.512-3.036-8.245-3.036H68.456a.838.838 0 00-.82.657l-5.373 27.685a.857.857 0 00.164.698.738.738 0 00.615.287h6.03c.41 0 .738-.287.82-.657l1.312-6.685h4.47c2.339 0 4.349-.246 5.866-.738a11.63 11.63 0 004.307-2.584c1.066-.985 1.968-2.092 2.625-3.282a13.654 13.654 0 001.435-3.937c.697-3.569.164-6.358-1.6-8.408zm-6.276 7.629c-.369 1.927-1.066 3.322-2.092 4.101-1.025.78-2.707 1.19-4.921 1.19h-2.666l1.927-9.926h3.446c2.543 0 3.568.533 3.978.984.574.656.697 1.928.328 3.65z" fill="#fff"/><path d="M30.68 19.77c2.297 0 3.814.41 4.593 1.271.78.861.944 2.297.534 4.348-.41 2.133-1.23 3.691-2.42 4.593-1.19.903-2.994 1.354-5.414 1.354h-3.65l2.255-11.566h4.102zM15.996 43.066h6.03l1.435-7.341h5.168c2.297 0 4.143-.247 5.619-.739 1.477-.492 2.79-1.271 4.02-2.42 1.025-.943 1.845-1.968 2.46-3.076a11.968 11.968 0 001.313-3.691c.656-3.281.164-5.824-1.435-7.67-1.6-1.846-4.143-2.748-7.63-2.748H21.37l-5.373 27.685zM46.47 8.04h5.989l-1.436 7.34h5.332c3.364 0 5.66.575 6.932 1.764 1.272 1.19 1.64 3.077 1.149 5.702l-2.502 12.879h-6.07l2.378-12.264c.287-1.395.164-2.338-.287-2.83-.451-.492-1.477-.78-2.994-.78h-4.799l-3.076 15.874h-5.988L46.47 8.039zm31.255 11.73c2.297 0 3.814.41 4.593 1.271.78.861.944 2.297.534 4.348-.41 2.133-1.23 3.691-2.42 4.593-1.19.903-2.995 1.354-5.414 1.354h-3.65l2.255-11.566h4.102zM63.04 43.066h6.03l1.435-7.341h5.168c2.297 0 4.142-.247 5.619-.739 1.476-.492 2.789-1.271 4.02-2.42 1.025-.943 1.845-1.968 2.46-3.076a11.966 11.966 0 001.313-3.691c.656-3.281.164-5.824-1.436-7.67-1.6-1.846-4.142-2.748-7.629-2.748H68.415l-5.373 27.685z" fill="#000004"/></g><defs><radialGradient id="paint0_radial" cx="0" cy="0" r="1" gradientUnits="userSpaceOnUse" gradientTransform="translate(31.521 9.707) scale(68.9454)"><stop stop-color="#fff"/><stop offset=".5" stop-color="#4C6B97"/><stop offset="1" stop-color="#231F20"/></radialGradient><clipPath id="clip0"><path fill="#fff" d="M0 0h105v55.371H0z"/></clipPath></defs></svg>